<svg width="237" height="54" viewBox="0 0 237 54" fill="none" xmlns="http://www.w3.org/2000/svg">
<g filter="url(#filter0_d_180_224)">
<path d="M80.4787 18.348C80.3764 17.3168 79.9375 16.5156 79.1619 15.9446C78.3864 15.3736 77.3338 15.0881 76.0043 15.0881C75.1009 15.0881 74.3381 15.2159 73.7159 15.4716C73.0938 15.7187 72.6165 16.0639 72.2841 16.5071C71.9602 16.9503 71.7983 17.4531 71.7983 18.0156C71.7813 18.4844 71.8793 18.8935 72.0923 19.2429C72.3139 19.5923 72.6165 19.8949 73 20.1506C73.3835 20.3977 73.8267 20.6151 74.3295 20.8026C74.8324 20.9815 75.3693 21.1349 75.9403 21.2628L78.2926 21.8253C79.4347 22.081 80.483 22.4219 81.4375 22.848C82.392 23.2741 83.2188 23.7983 83.9176 24.4205C84.6165 25.0426 85.1577 25.7756 85.5412 26.6193C85.9332 27.4631 86.1335 28.4304 86.142 29.5213C86.1335 31.1236 85.7244 32.5128 84.9148 33.6889C84.1136 34.8565 82.9545 35.7642 81.4375 36.4119C79.929 37.0511 78.1094 37.3707 75.9787 37.3707C73.8651 37.3707 72.0241 37.0469 70.456 36.3991C68.8963 35.7514 67.6776 34.7926 66.7997 33.5227C65.9304 32.2443 65.4744 30.6634 65.4318 28.7798H70.7884C70.848 29.6577 71.0994 30.3906 71.5426 30.9787C71.9943 31.5582 72.5952 31.9972 73.3452 32.2955C74.1037 32.5852 74.9602 32.7301 75.9148 32.7301C76.8523 32.7301 77.6662 32.5937 78.3565 32.321C79.0554 32.0483 79.5966 31.669 79.9801 31.1832C80.3636 30.6974 80.5554 30.1392 80.5554 29.5085C80.5554 28.9205 80.3807 28.4261 80.0312 28.0256C79.6903 27.625 79.1875 27.2841 78.5227 27.0028C77.8665 26.7216 77.0611 26.4659 76.1065 26.2358L73.2557 25.5199C71.0483 24.983 69.3054 24.1435 68.027 23.0014C66.7486 21.8594 66.1136 20.321 66.1222 18.3864C66.1136 16.8011 66.5355 15.4162 67.3878 14.2315C68.2486 13.0469 69.429 12.1222 70.929 11.4574C72.429 10.7926 74.1335 10.4602 76.0426 10.4602C77.9858 10.4602 79.6818 10.7926 81.1307 11.4574C82.5881 12.1222 83.7216 13.0469 84.5312 14.2315C85.3409 15.4162 85.7585 16.7884 85.7841 18.348H80.4787ZM94.6978 31.3494L94.7106 24.8168H95.5032L101.793 17.3636H108.044L99.5941 27.233H98.3029L94.6978 31.3494ZM89.7631 37V10.8182H95.2092V37H89.7631ZM102.036 37L96.2575 28.4474L99.8881 24.5994L108.415 37H102.036ZM110.716 37V17.3636H116.162V37H110.716ZM113.452 14.8324C112.642 14.8324 111.948 14.5639 111.368 14.027C110.797 13.4815 110.512 12.8295 110.512 12.071C110.512 11.321 110.797 10.6776 111.368 10.1406C111.948 9.59517 112.642 9.32244 113.452 9.32244C114.262 9.32244 114.952 9.59517 115.523 10.1406C116.103 10.6776 116.392 11.321 116.392 12.071C116.392 12.8295 116.103 13.4815 115.523 14.027C114.952 14.5639 114.262 14.8324 113.452 14.8324ZM125.971 25.6477V37H120.525V17.3636H125.715V20.8281H125.945C126.38 19.6861 127.109 18.7827 128.131 18.1179C129.154 17.4446 130.394 17.108 131.852 17.108C133.215 17.108 134.404 17.4062 135.418 18.0028C136.433 18.5994 137.221 19.4517 137.783 20.5597C138.346 21.6591 138.627 22.9716 138.627 24.4972V37H133.181V25.4688C133.19 24.267 132.883 23.3295 132.261 22.6562C131.638 21.9744 130.782 21.6335 129.691 21.6335C128.958 21.6335 128.31 21.7912 127.748 22.1065C127.194 22.4219 126.759 22.8821 126.444 23.4872C126.137 24.0838 125.979 24.804 125.971 25.6477Z" fill="#444D47"/>
<path d="M157.225 18.348C157.123 17.3168 156.684 16.5156 155.908 15.9446C155.132 15.3736 154.08 15.0881 152.75 15.0881C151.847 15.0881 151.084 15.2159 150.462 15.4716C149.84 15.7187 149.363 16.0639 149.03 16.5071C148.706 16.9503 148.544 17.4531 148.544 18.0156C148.527 18.4844 148.625 18.8935 148.838 19.2429C149.06 19.5923 149.363 19.8949 149.746 20.1506C150.13 20.3977 150.573 20.6151 151.076 20.8026C151.578 20.9815 152.115 21.1349 152.686 21.2628L155.039 21.8253C156.181 22.081 157.229 22.4219 158.184 22.848C159.138 23.2741 159.965 23.7983 160.664 24.4205C161.363 25.0426 161.904 25.7756 162.287 26.6193C162.679 27.4631 162.88 28.4304 162.888 29.5213C162.88 31.1236 162.471 32.5128 161.661 33.6889C160.86 34.8565 159.701 35.7642 158.184 36.4119C156.675 37.0511 154.855 37.3707 152.725 37.3707C150.611 37.3707 148.77 37.0469 147.202 36.3991C145.642 35.7514 144.424 34.7926 143.546 33.5227C142.676 32.2443 142.221 30.6634 142.178 28.7798H147.534C147.594 29.6577 147.846 30.3906 148.289 30.9787C148.74 31.5582 149.341 31.9972 150.091 32.2955C150.85 32.5852 151.706 32.7301 152.661 32.7301C153.598 32.7301 154.412 32.5937 155.103 32.321C155.801 32.0483 156.343 31.669 156.726 31.1832C157.11 30.6974 157.301 30.1392 157.301 29.5085C157.301 28.9205 157.127 28.4261 156.777 28.0256C156.436 27.625 155.934 27.2841 155.269 27.0028C154.613 26.7216 153.807 26.4659 152.853 26.2358L150.002 25.5199C147.794 24.983 146.051 24.1435 144.773 23.0014C143.495 21.8594 142.86 20.321 142.868 18.3864C142.86 16.8011 143.282 15.4162 144.134 14.2315C144.995 13.0469 146.175 12.1222 147.675 11.4574C149.175 10.7926 150.88 10.4602 152.789 10.4602C154.732 10.4602 156.428 10.7926 157.877 11.4574C159.334 12.1222 160.468 13.0469 161.277 14.2315C162.087 15.4162 162.505 16.7884 162.53 18.348H157.225ZM166.509 37V17.3636H171.955V37H166.509ZM169.245 14.8324C168.435 14.8324 167.741 14.5639 167.161 14.027C166.59 13.4815 166.305 12.8295 166.305 12.071C166.305 11.321 166.59 10.6776 167.161 10.1406C167.741 9.59517 168.435 9.32244 169.245 9.32244C170.055 9.32244 170.745 9.59517 171.316 10.1406C171.896 10.6776 172.185 11.321 172.185 12.071C172.185 12.8295 171.896 13.4815 171.316 14.027C170.745 14.5639 170.055 14.8324 169.245 14.8324ZM185.164 44.7727C183.4 44.7727 181.887 44.5298 180.626 44.044C179.373 43.5668 178.376 42.9148 177.635 42.0881C176.893 41.2614 176.412 40.3324 176.19 39.3011L181.227 38.6236C181.38 39.0156 181.623 39.3821 181.956 39.723C182.288 40.0639 182.727 40.3366 183.272 40.5412C183.826 40.7543 184.5 40.8608 185.292 40.8608C186.477 40.8608 187.453 40.571 188.22 39.9915C188.995 39.4205 189.383 38.4616 189.383 37.1151V33.5227H189.153C188.914 34.0682 188.556 34.5838 188.079 35.0696C187.602 35.5554 186.988 35.9517 186.238 36.2585C185.488 36.5653 184.593 36.7188 183.554 36.7188C182.079 36.7188 180.737 36.3778 179.527 35.696C178.325 35.0057 177.366 33.9531 176.65 32.5384C175.943 31.1151 175.589 29.3168 175.589 27.1435C175.589 24.919 175.951 23.0611 176.676 21.5696C177.4 20.0781 178.363 18.9616 179.565 18.2202C180.775 17.4787 182.1 17.108 183.541 17.108C184.64 17.108 185.561 17.2955 186.302 17.6705C187.044 18.0369 187.64 18.4972 188.092 19.0511C188.552 19.5966 188.906 20.1335 189.153 20.6619H189.358V17.3636H194.765V37.1918C194.765 38.8622 194.356 40.2599 193.538 41.3849C192.72 42.5099 191.586 43.3537 190.137 43.9162C188.697 44.4872 187.039 44.7727 185.164 44.7727ZM185.279 32.6278C186.157 32.6278 186.899 32.4105 187.504 31.9759C188.118 31.5327 188.586 30.902 188.91 30.0838C189.243 29.2571 189.409 28.2685 189.409 27.1179C189.409 25.9673 189.247 24.9702 188.923 24.1264C188.599 23.2741 188.13 22.6136 187.517 22.1449C186.903 21.6761 186.157 21.4418 185.279 21.4418C184.385 21.4418 183.63 21.6847 183.017 22.1705C182.403 22.6477 181.939 23.3125 181.623 24.1648C181.308 25.017 181.15 26.0014 181.15 27.1179C181.15 28.2514 181.308 29.2315 181.623 30.0582C181.947 30.8764 182.412 31.5114 183.017 31.9631C183.63 32.4062 184.385 32.6278 185.279 32.6278ZM204.545 25.6477V37H199.099V10.8182H204.392V20.8281H204.622C205.065 19.669 205.781 18.7614 206.77 18.1051C207.758 17.4403 208.998 17.108 210.49 17.108C211.853 17.108 213.042 17.4062 214.056 18.0028C215.079 18.5909 215.872 19.4389 216.434 20.5469C217.005 21.6463 217.287 22.9631 217.278 24.4972V37H211.832V25.4688C211.841 24.2585 211.534 23.3168 210.912 22.6435C210.298 21.9702 209.437 21.6335 208.329 21.6335C207.588 21.6335 206.931 21.7912 206.36 22.1065C205.798 22.4219 205.355 22.8821 205.031 23.4872C204.716 24.0838 204.554 24.804 204.545 25.6477ZM232.009 17.3636V21.4545H220.183V17.3636H232.009ZM222.868 12.6591H228.314V30.9659C228.314 31.4687 228.391 31.8608 228.544 32.142C228.697 32.4148 228.911 32.6065 229.183 32.7173C229.464 32.8281 229.788 32.8835 230.155 32.8835C230.411 32.8835 230.666 32.8622 230.922 32.8196C231.178 32.7685 231.374 32.7301 231.51 32.7045L232.366 36.7571C232.094 36.8423 231.71 36.9403 231.216 37.0511C230.722 37.1705 230.121 37.2429 229.413 37.2685C228.101 37.3196 226.95 37.1449 225.962 36.7443C224.982 36.3437 224.219 35.7216 223.673 34.8778C223.128 34.0341 222.859 32.9687 222.868 31.6818V12.6591Z" fill="#5861E2"/>
</g>
<g filter="url(#filter1_d_180_224)">
<path d="M26.0032 31.0749L20 39.9729H42.0816L57.5808 17H41.2832L31.7872 31.0749H26.0032Z" fill="#5861E2"/>
</g>
<g filter="url(#filter2_d_180_224)">
<path d="M25.4992 6H46.5808L31.0816 28.9729H10L25.4992 6Z" fill="#D1F6DB"/>
</g>
<defs>
<filter id="filter0_d_180_224" x="61.4318" y="9.32239" width="174.935" height="43.4503" filterUnits="userSpaceOnUse" color-interpolation-filters="sRGB">
<feFlood flood-opacity="0" result="BackgroundImageFix"/>
<feColorMatrix in="SourceAlpha" type="matrix" values="0 0 0 0 0 0 0 0 0 0 0 0 0 0 0 0 0 0 127 0" result="hardAlpha"/>
<feOffset dy="4"/>
<feGaussianBlur stdDeviation="2"/>
<feComposite in2="hardAlpha" operator="out"/>
<feColorMatrix type="matrix" values="0 0 0 0 0 0 0 0 0 0 0 0 0 0 0 0 0 0 0.25 0"/>
<feBlend mode="normal" in2="BackgroundImageFix" result="effect1_dropShadow_180_224"/>
<feBlend mode="normal" in="SourceGraphic" in2="effect1_dropShadow_180_224" result="shape"/>
</filter>
<filter id="filter1_d_180_224" x="10" y="11" width="57.5808" height="42.9729" filterUnits="userSpaceOnUse" color-interpolation-filters="sRGB">
<feFlood flood-opacity="0" result="BackgroundImageFix"/>
<feColorMatrix in="SourceAlpha" type="matrix" values="0 0 0 0 0 0 0 0 0 0 0 0 0 0 0 0 0 0 127 0" result="hardAlpha"/>
<feOffset dy="4"/>
<feGaussianBlur stdDeviation="5"/>
<feComposite in2="hardAlpha" operator="out"/>
<feColorMatrix type="matrix" values="0 0 0 0 0 0 0 0 0 0 0 0 0 0 0 0 0 0 0.25 0"/>
<feBlend mode="normal" in2="BackgroundImageFix" result="effect1_dropShadow_180_224"/>
<feBlend mode="normal" in="SourceGraphic" in2="effect1_dropShadow_180_224" result="shape"/>
</filter>
<filter id="filter2_d_180_224" x="0" y="0" width="56.5808" height="42.9729" filterUnits="userSpaceOnUse" color-interpolation-filters="sRGB">
<feFlood flood-opacity="0" result="BackgroundImageFix"/>
<feColorMatrix in="SourceAlpha" type="matrix" values="0 0 0 0 0 0 0 0 0 0 0 0 0 0 0 0 0 0 127 0" result="hardAlpha"/>
<feOffset dy="4"/>
<feGaussianBlur stdDeviation="5"/>
<feComposite in2="hardAlpha" operator="out"/>
<feColorMatrix type="matrix" values="0 0 0 0 0 0 0 0 0 0 0 0 0 0 0 0 0 0 0.25 0"/>
<feBlend mode="normal" in2="BackgroundImageFix" result="effect1_dropShadow_180_224"/>
<feBlend mode="normal" in="SourceGraphic" in2="effect1_dropShadow_180_224" result="shape"/>
</filter>
</defs>
</svg>
